<svg width="100" height="100" viewBox="0 0 100 100" fill="none" xmlns="http://www.w3.org/2000/svg">
<rect width="100" height="100" fill="transparent"/>
<path d="M50 25C30 25 15 40 15 60C15 80 30 95 50 95C70 95 85 80 85 60C85 40 70 25 50 25Z" fill="#FFD700" stroke="#4682B4" stroke-width="2"/>
<circle cx="38" cy="55" r="5" fill="#060f0f"/>
<circle cx="62" cy="55" r="5" fill="#060f0f"/>
<path d="M40 70C40 70 45 75 50 75C55 75 60 70 60 70" stroke="#060f0f" stroke-width="2" stroke-linecap="round"/>
<path d="M30 30C30 30 35 25 40 25C45 25 50 30 50 30" stroke="#6B8E23" stroke-width="2" stroke-linecap="round"/>
<path d="M70 30C70 30 65 25 60 25C55 25 50 30 50 30" stroke="#6B8E23" stroke-width="2" stroke-linecap="round"/>
</svg>
