<svg width="100" height="100" viewBox="0 0 100 100" fill="none" xmlns="http://www.w3.org/2000/svg">
<rect width="100" height="100" fill="transparent"/>
<path d="M50 15C30 15 15 30 15 50C15 70 30 85 50 85C70 85 85 70 85 50C85 30 70 15 50 15Z" fill="#FFD700" stroke="#4682B4" stroke-width="2"/>
<circle cx="38" cy="45" r="5" fill="#060f0f"/>
<circle cx="62" cy="45" r="5" fill="#060f0f"/>
<path d="M40 60C40 60 45 65 50 65C55 65 60 60 60 60" stroke="#060f0f" stroke-width="2" stroke-linecap="round"/>
<path d="M30 20C30 20 35 15 40 15C45 15 50 20 50 20" stroke="#6B8E23" stroke-width="2" stroke-linecap="round"/>
<path d="M70 20C70 20 65 15 60 15C55 15 50 20 50 20" stroke="#6B8E23" stroke-width="2" stroke-linecap="round"/>
</svg>
