<svg width="100" height="100" viewBox="0 0 100 100" fill="none" xmlns="http://www.w3.org/2000/svg">
<rect width="100" height="100" fill="transparent"/>
<path d="M50 20C30 20 15 35 15 55C15 75 30 90 50 90C70 90 85 75 85 55C85 35 70 20 50 20Z" fill="#FFD700" stroke="#4682B4" stroke-width="2"/>
<circle cx="38" cy="50" r="5" fill="#060f0f"/>
<circle cx="62" cy="50" r="5" fill="#060f0f"/>
<path d="M40 65C40 65 45 70 50 70C55 70 60 65 60 65" stroke="#060f0f" stroke-width="2" stroke-linecap="round"/>
<path d="M30 25C30 25 35 20 40 20C45 20 50 25 50 25" stroke="#6B8E23" stroke-width="2" stroke-linecap="round"/>
<path d="M70 25C70 25 65 20 60 20C55 20 50 25 50 25" stroke="#6B8E23" stroke-width="2" stroke-linecap="round"/>
</svg>
